<?xml version="1.0" encoding="UTF-8"?> <svg xmlns="http://www.w3.org/2000/svg" width="505.297" height="415.143"><g id="Groupe_880" data-name="Groupe 880" transform="translate(-172.999 -222.172)"><path id="Tracé_5074" data-name="Tracé 5074" d="M483.816 343.183h298.29s16.176-20.464 0-34.235c-8.928-7.6-19.469-6.812-27.126-4.579a8.928 8.928 0 0 1-11.06-6.993c-1.814-8.412-7.4-19.422-23.461-25.927-15.8-6.4-25.789 3.374-31.57 13.414a4.486 4.486 0 0 1-8.114-.826c-5.008-15.852-22.458-36.865-79.8-36.865-72.926 0-64.823 38.769-58.306 54.882a3.714 3.714 0 0 1-4.216 5.065c-11.247-2.4-32.127-5.52-41.491 1.829-13.146 10.324-13.146 34.235-13.146 34.235z" transform="translate(-111 -25)" fill="#ffe2e2" opacity=".621"></path><g id="Groupe_199" data-name="Groupe 199"><g id="Groupe_195" data-name="Groupe 195"><path id="Tracé_4242" data-name="Tracé 4242" d="M353.918 434.15S366.039 323.607 294.29 285c-106.43 91.246-16.409 195.674-16.409 195.674z" fill="#91dbd6"></path><path id="Tracé_4243" data-name="Tracé 4243" d="M294.289 285c-.37.318-.729.636-1.1.954l18.714 129.687-68.64-44.341q-.173 1.357-.311 2.7l69.418 44.841 5.4 37.424 2.264-1.387-10.764-74.592 35.23-31.667a158.01 158.01 0 0 0-.866-2.506l-34.782 31.262-13.22-91.619c-.448-.25-.885-.511-1.34-.756z" fill="#a6e0db"></path></g><g id="Groupe_196" data-name="Groupe 196"><path id="Tracé_4244" data-name="Tracé 4244" d="M320.715 416.149s-59.457-93.61-137.3-88.137c-39.965 84.9 47.956 143.872 47.956 143.872l95.114 18.938z" fill="#19a597"></path><path id="Tracé_4245" data-name="Tracé 4245" d="M265.145 356.507l-13.117 47.4-66.769-75.983c-.614.032-1.227.05-1.844.1-.157.334-.291.665-.448 1l35.761 40.7-45.685-.043c-.012.434-.012.863-.018 1.3v1.146l47.849.046 59.6 67.819-80.183 2.48c.654.807 1.308 1.6 1.964 2.382l80.309-2.485 42.318 48.158 1.607.319-.186-2.4-72.346-82.346 13.279-47.985q-1.036-.815-2.091-1.608z" fill="#118c7d"></path></g><g id="Groupe_198" data-name="Groupe 198"><path id="Tracé_4246" data-name="Tracé 4246" d="M303.921 466.483s-85.7-34.968-128.427 10.188c32.436 122.73 190.838 90.135 190.838 90.135z" fill="#91dbd6"></path><g id="Groupe_197" data-name="Groupe 197"><path id="Tracé_4247" data-name="Tracé 4247" d="M175.494 476.674c.125.473.258.937.388 1.4l119.368 38.29-56.838 37.753q1.288.621 2.588 1.213l57.227-38.012 46.624 14.954-1.994-3.2-90.773-29.114-23.967-46.009q-1.317.1-2.633.232l23.292 44.714-72.319-23.195c-.32.325-.646.639-.961.97z" fill="#a6e0db"></path></g></g></g><g id="Groupe_874" data-name="Groupe 874"><g id="Groupe_871" data-name="Groupe 871"><path id="Tracé_5075" data-name="Tracé 5075" d="M352.2 341.75l19.247 29.95c4.113 6.4 10.516 13.576 17.9 15.4l39.544 9.794v5.785s-39.515 3.784-57.441-5.893-30.78-32.635-30.78-32.635z" fill="#ffcaca"></path><path id="Tracé_5076" data-name="Tracé 5076" d="M305.584 348.234s9.874-18.545 22.8-21.789c11.077 0 13.672 1.621 13.672 1.621s14.2 17.606 19.148 28.991a16.3 16.3 0 0 1-.072 13.336c-8.722 18.8-7.613 54.993-7.613 54.993h-43.576s7.621-54.174 6.164-64.879-10.523-12.273-10.523-12.273z" fill="#f9df70"></path><g id="Groupe_865" data-name="Groupe 865"><g id="Groupe_864" data-name="Groupe 864"><path id="Tracé_5077" data-name="Tracé 5077" d="M385.187 615.7l2.571 6.691a8.59 8.59 0 0 0 3.5 4.445 34.525 34.525 0 0 0 8.853 3.839c-5.153 4.4-13.354-.014-18.045-3.263a11.481 11.481 0 0 1-4.585-6.643l-1.074-5.069z" fill="#f7af8c"></path></g><path id="Tracé_5078" data-name="Tracé 5078" d="M376.968 619.18s-3.486 2.74-2.847 6.232 1.544 11.671 1.544 11.671h3.583l-.11-7.628c.011-.5 7.686 7.628 8.986 7.628h18.964s1.26-5.145-9.876-6.8-20.244-11.103-20.244-11.103z" fill="#ff5548"></path></g><path id="Tracé_5079" data-name="Tracé 5079" d="M353.521 425.386l32.763 190.747-10.6.216s-23.245-40.089-26.667-73.323c-.565-5.495-.826-11.085-4.413-15.285-27.364-32.05-19.578-82.675-19.578-82.675l14.8-19.68z" fill="#393c51"></path><g id="Groupe_867" data-name="Groupe 867"><g id="Groupe_866" data-name="Groupe 866"><path id="Tracé_5080" data-name="Tracé 5080" d="M303.006 615.7l2.571 6.691a8.59 8.59 0 0 0 3.5 4.445 34.536 34.536 0 0 0 8.854 3.839c-5.154 4.4-13.354-.014-18.046-3.263a11.485 11.485 0 0 1-4.585-6.643l-1.074-5.069z" fill="#f7af8c"></path></g><path id="Tracé_5081" data-name="Tracé 5081" d="M294.787 619.18s-3.485 2.74-2.847 6.232 1.544 11.671 1.544 11.671h3.583l-.11-7.628c.011-.5 7.686 7.628 8.986 7.628h18.964s1.26-5.145-9.876-6.8-20.244-11.103-20.244-11.103z" fill="#ff5548"></path></g><g id="Groupe_869" data-name="Groupe 869"><path id="Tracé_5082" data-name="Tracé 5082" d="M343.693 318.843l.03 21.226-12.741-13.888 1.373-19.757z" fill="#ffcaca"></path><path id="Tracé_5083" data-name="Tracé 5083" d="M345.815 287.83c-8.825 1.2-13.216 12.512-13.216 12.512l.1 33.482-15.3-13.231a119.3 119.3 0 0 1 2.664-31.564c3.275-10.365 16.482-13.094 25.755-8.038 4.51 2.459 7.19 7.285 8.782 12.077a38.175 38.175 0 0 1 .908 19.989l-5.249 24.569-6.533-6.477a26.712 26.712 0 0 1-.03-12.306c3.359-12.332 8.045-31.819 2.119-31.013z" fill="#393c51"></path><path id="Tracé_5084" data-name="Tracé 5084" d="M330 300.812c.989-.958 2.841-.776 4.136.4s1.542 2.914.553 3.872-2.841.776-4.136-.4-1.542-2.915-.553-3.872z" fill="#ffcaca"></path><g id="Groupe_868" data-name="Groupe 868"><path id="Tracé_5085" data-name="Tracé 5085" d="M347.375 319.127c1.709-.051 3.292-.332 4.121-1.071 4.928-7.855-.686-29.027-.686-29.027l-7.877-3.635-10.008 6.841-.57 14.189a11.911 11.911 0 0 0 4.469 9.786 19.1 19.1 0 0 0 10.551 2.917z" fill="#ffcaca"></path></g><path id="Tracé_5086" data-name="Tracé 5086" d="M347.48 286.671c1.888 6.329-14.88 13.671-14.88 13.671l-4.213-7.9 7.7-9.436 9.731 1.554a5.587 5.587 0 0 1 1.662 2.111z" fill="#393c51"></path><path id="Tracé_5087" data-name="Tracé 5087" d="M347.588 288c.351 2.5 4.244 5.525 4.244 5.525l.366-2.984-.887-2.1-2-1.11s-2.075-1.824-1.723.669z" fill="#393c51"></path></g><path id="Tracé_5088" data-name="Tracé 5088" d="M312.538 425.386s-30.8 13.247-14.681 96.384a31.336 31.336 0 0 1-1.056 14.708c-6.825 23.19-2.959 79.871-2.959 79.871h10.646s35.638-147.926 37.937-190.963z" fill="#3d4259"></path><g id="Groupe_870" data-name="Groupe 870" fill="#ffcaca"><path id="Tracé_5089" data-name="Tracé 5089" d="M434.21 396.236c.619.238 2.811.847 7.214-.274 3.95-1.006 11.48-5.661 11.348-1.067-2.923 3.408-5.953 7.8-5.953 7.8-1.969 1.871-6.493 2.24-9.375 1.9l-8.788-2.15s-2.124-4.08-2.257-4.255l1.386-1.289a19.731 19.731 0 0 0 6.425-.665z"></path><path id="Tracé_5090" data-name="Tracé 5090" d="M436.154 397.577a3.419 3.419 0 0 0 .6.341c-.431.4-.835.817-1.223 1.247-1.986.764-3.946 1.593-5.923 2.379-.311-1.281-.752-3.077-.8-3.2l11.865-7.9s1.572 1.1-.255 3.514a13.508 13.508 0 0 1-4.264 3.619z"></path></g></g><g id="Groupe_872" data-name="Groupe 872"><path id="Tracé_5091" data-name="Tracé 5091" d="M323.269 328.222l-.714 1.082c.175.116 17.464 11.735 17.464 30.708v77.323h-31.666l1.008-59.541c-.43.34-.866.672-1.315.989l-1.013 59.85h34.284v-78.621c0-19.663-17.868-31.672-18.048-31.79z" fill="#393c51"></path></g><path id="Tracé_5092" data-name="Tracé 5092" d="M305.584 348.234s-21.682 56.1-6.841 61.208 41.925-35.234 41.925-35.234l-5.219-4.072-24.724 21.1s5.568-7.861 8.323-25.3-13.464-17.702-13.464-17.702z" fill="#ffcaca"></path><path id="Tracé_5093" data-name="Tracé 5093" d="M334.777 371.063l1.6-11.681s4.036-4.427 7.09-5.22a2.3 2.3 0 0 1 2.438.929c1.269 1.8 4.154 6.019 4.215 7.376a2.2 2.2 0 0 1-.818 1.744l-3.726 3.239-4.911 6.758z" fill="#ffcaca"></path><g id="Groupe_873" data-name="Groupe 873"><path id="Rectangle_129" data-name="Rectangle 129" d="M5.386 0H35.98a5.385 5.385 0 0 1 5.385 5.385v20.094a5.385 5.385 0 0 1-5.385 5.385H5.386A5.386 5.386 0 0 1 0 25.479V5.386A5.386 5.386 0 0 1 5.386 0z" transform="translate(303.706 423.2)" fill="#ef4c43"></path><path id="Tracé_5094" data-name="Tracé 5094" d="M345.071 437.99v-9.4a5.4 5.4 0 0 0-5.385-5.386h-30.6a5.4 5.4 0 0 0-5.385 5.386v9.4z" fill="#ff5548"></path><path id="Tracé_5095" data-name="Tracé 5095" d="M340.575 454.065c-2.58 0-4.691-1.106-4.691-3.686v-23.492c0-2.58 2.111-3.687 4.691-3.687 2.58 0 4.691 2.111 4.691 3.687v22.487c0 3.585-2.111 4.691-4.691 4.691z" fill="#ff917b"></path><path id="Tracé_5096" data-name="Tracé 5096" d="M319.53 443.064a1.428 1.428 0 0 1-1.424-1.423v-7.174a1.428 1.428 0 0 1 1.424-1.423 1.427 1.427 0 0 1 1.423 1.423v7.174a1.427 1.427 0 0 1-1.423 1.423z" fill="#393c51"></path></g></g><g id="Groupe_879" data-name="Groupe 879"><g id="Groupe_875" data-name="Groupe 875"><path id="Tracé_5097" data-name="Tracé 5097" d="M577.553 615.117s3.784 2 3.778 5.432.542 11.356.542 11.356l-3.4.617-1.209-7.268c-.095-.472-6.108 7.678-10.2 11.769l-15.048.292s-2.084-4.673 8.214-8.162 17.323-14.036 17.323-14.036z" fill="#e8ce5f"></path><path id="Tracé_5098" data-name="Tracé 5098" d="M565.322 555.034a65.1 65.1 0 0 0-.884-9.186 56.6 56.6 0 0 0-7.518-18.887c-3.69-1.368-7.222-3.075-10.991-4.566a99.03 99.03 0 0 0-13.332-3.782q.279.759.569 1.525c22.041 58.156 34.365 84.567 36.287 90.819a7.24 7.24 0 0 1 .46 2.9c-.318 3.018-1.723 9.47-10.559 15.61 9.381 2.338 18.2-14.346 18.2-14.346s-11.765-40.073-12.232-60.087z" fill="#a05b4b"></path></g><path id="Tracé_5099" data-name="Tracé 5099" d="M519.9 319.828l1 15.8 15.434-3.192-1.854-21.482z" fill="#a05b4b"></path><path id="Tracé_5100" data-name="Tracé 5100" d="M516.342 319.992c-2.255-.068-4.345-.438-5.438-1.415-6.505-10.366.9-38.31.9-38.31l23.606 4.232.752 18.726a15.723 15.723 0 0 1-5.9 12.917 25.222 25.222 0 0 1-13.92 3.85z" fill="#a05b4b"></path><path id="Tracé_5101" data-name="Tracé 5101" d="M531.537 620.629s3.248 2.554 2.653 5.808-1.439 10.878-1.439 10.878h-3.34l.1-7.11c-.01-.465-7.164 7.11-8.375 7.11h-17.672s-1.174-4.8 9.205-6.337 18.868-10.349 18.868-10.349z" fill="#e8ce5f"></path><g id="Groupe_876" data-name="Groupe 876"><path id="Tracé_5102" data-name="Tracé 5102" d="M540.5 560.591a65.03 65.03 0 0 0 2.356-8.922c1.413-8.8 1.535-21.131.688-25.119-2.987-2.563-6.9-.592-9.917-3.3a99.088 99.088 0 0 0-11.193-8.17q0 .81.005 1.628c.509 62.19 2.911 91.237 2.546 97.767-.055 1-3 13.85-13.42 16.546 7.989 5.446 19.973-10.395 19.973-10.395s2.462-41.1 8.962-60.035z" fill="#a05b4b"></path></g><path id="Tracé_5103" data-name="Tracé 5103" d="M520.731 332.942L505.9 357.169a18.962 18.962 0 0 0-1.358 12.346l9.418 41.343a36.247 36.247 0 0 1 .9 7.306l2.25 108.386h47.342a335.766 335.766 0 0 1-9.011-49.009c-3-27.619 5.788-39.633 3.339-51.721-1.444-7.123-5.684-16.141-11.653-23.6a22.932 22.932 0 0 1-4.907-13.809c-.5-20.5 20.967-77.1.475-63.326s-21.964 7.857-21.964 7.857z" fill="#ef4c43"></path><path id="Tracé_5104" data-name="Tracé 5104" d="M519.913 394.246l-1.113 3.974c-.618 2.209-1.4 3.043-3.193 6-5.217 8.7-22.8 30.022-22.8 30.022L478.6 442.3s.293 2.052 3.516 1.466a14.619 14.619 0 0 0 5.568-2.345s.589 2.337-2.345 7.033c-2.191 3.508-9.219 9.484-4.395 10.549a81.4 81.4 0 0 0 9.788-5.415 9.467 9.467 0 0 0 4.75-6.692l1.286-7.526 30.174-24.67a22.836 22.836 0 0 0 7.22-10.486l.1-.3z" fill="#a05b4b"></path><path id="Tracé_5105" data-name="Tracé 5105" d="M437.859 369.64c-.716.048-3.175-.021-7.366-2.583-3.76-2.3-10.056-9.508-11.383-4.719 1.934 4.452 3.665 9.95 3.665 9.95 1.438 2.561 5.994 4.384 9.078 4.956l9.764.579s3.495-3.538 3.689-3.676l-1.022-1.774a21.327 21.327 0 0 1-6.425-2.733z" fill="#a05b4b"></path><g id="Groupe_877" data-name="Groupe 877"><path id="Tracé_5106" data-name="Tracé 5106" d="M534.685 405.088L519.12 394.6l5.925-41.482 1.457.208-5.8 40.568 13.133 8.85 9.689-33.027 1.412.414z" fill="#ff5548"></path></g><path id="Tracé_5107" data-name="Tracé 5107" d="M528.411 291.391a24.037 24.037 0 0 1-12.74 2.946c-4.664-.172-10.509-3.987-12.475-8.22-1.658-3.57-2.021-7.279 3.482-11.428 3.77-2.8 8.454-1.047 10.474.77a3.955 3.955 0 0 0 5.245.142 24.254 24.254 0 0 1 15.979-5.6c8.21 0 7.983 7.963 6.735 13.746a8.311 8.311 0 0 0 3.679 8.852c4.874 3.018 11.079 7.938 9.8 12.859a29.134 29.134 0 0 1-5.457 10.24 7.275 7.275 0 0 0-.07 8.872c3.029 4 6.577 9.8 5.527 14-.994 3.978-3.959 9.082-6.345 12.765a7.911 7.911 0 0 0-.008 8.569 10.537 10.537 0 0 1 1.665 7.969 18.417 18.417 0 0 1-3 6.446 5.147 5.147 0 0 1-8.82-.679c-5.377-10.854-14.791-33.07-11.5-50.015 1.649-8.5 3.9-23.49 3.9-23.49s2.427-12.36-6.071-8.744z" fill="#393c51"></path><path id="Tracé_5108" data-name="Tracé 5108" d="M516.143 383.161l-18.073 9.364a9.9 9.9 0 0 1-7.316.716l-49.706-15.7v-6.274l48.444 5.881 15.153-8.057z" fill="#a05b4b"></path><path id="Tracé_5109" data-name="Tracé 5109" d="M537.576 295.819c-1.306-1.264-3.75-1.025-5.46.534s-2.036 3.847-.73 5.11 3.75 1.025 5.459-.534 2.037-3.847.731-5.11z" fill="#a05b4b"></path><path id="Tracé_5110" data-name="Tracé 5110" d="M519.913 381.375l-5.007-30.908-21.464 24.667 5.885 19.194 20.453-10.58c-.612-2.36 0 0 .133-2.373z" fill="#ef4c43"></path><g id="Groupe_878" data-name="Groupe 878"><path id="Tracé_5111" data-name="Tracé 5111" d="M511 397.858c.572-.417.572-.417 1.155-.81l-6.755-27.729a18.127 18.127 0 0 1 1.252-11.691l14.639-23.969c-.476-.339-.327-.29-.562-.717-.053-.1-.656-.122-.811-.146l-14.812 24a19.934 19.934 0 0 0-1.42 12.917" fill="#ff5548"></path></g><path id="Tracé_5112" data-name="Tracé 5112" d="M435.422 370.4a3.688 3.688 0 0 1-.726.162c.319.548.6 1.11.867 1.678 1.808 1.422 3.568 2.9 5.359 4.345.73-1.223 1.758-2.939 1.852-3.048l-9.739-11.937s-1.973.632-.856 3.712a14.6 14.6 0 0 0 3.243 5.088z" fill="#a05b4b"></path></g></g></svg> 