<?xml version="1.0" encoding="UTF-8"?> <svg xmlns="http://www.w3.org/2000/svg" width="610" height="560"><defs><clipPath id="clip-path"><path id="SVGID" d="M991.22 642.89c-.888 3.368-3.459 14.646-.569 22.92a4.426 4.426 0 0 0 2.579 2.711c10.291 3.85 23.487 3.446 28.026 3.164a3.7 3.7 0 0 0 2.767-1.515c2.251-3.075 6.957-11.427 6.283-26.819a3.266 3.266 0 0 0-1.375-2.511c-9.765-6.89-32.892-1.989-36.594.471a2.718 2.718 0 0 0-1.117 1.579z" transform="translate(-989.316 -637.313)" fill="#f9df70"></path></clipPath></defs><g id="ILLU_HOME_OFF_MARKET" data-name="ILLU HOME OFF MARKET" transform="translate(-445 -3173)"><g id="Groupe_521" data-name="Groupe 521" transform="translate(-320.135 2581.516)"><g id="Groupe_487" data-name="Groupe 487" transform="translate(1022.779 763.947)"><g id="Groupe_483" data-name="Groupe 483" transform="translate(0 43.226)"><path id="Tracé_4593" data-name="Tracé 4593" d="M1020.009 937.733s-95.538-96.187-56.462-187.5c170.793 6.137 164.3 174.091 164.3 174.091z" transform="translate(-954.159 -750.229)" fill="#91dbd6"></path><path id="Tracé_4594" data-name="Tracé 4594" d="M960.964 750.229c.6.021 1.179.053 1.768.078l80.688 137.862 31.759-94.426q1.193 1.162 2.35 2.34l-32.116 95.491 23.283 39.783-3.211.4-46.415-79.3-57.647-3.428a195.397 195.397 0 0 1-1.078-3.046l56.916 3.384-57-97.394c.238-.579.457-1.16.7-1.739z" transform="translate(-951.576 -750.229)" fill="#a6e0db"></path></g><g id="Groupe_484" data-name="Groupe 484" transform="translate(82.787)"><path id="Tracé_4595" data-name="Tracé 4595" d="M1013.361 908.2s-14.432-134.417 63.939-188.337c102.61 50.589 63.581 173.6 63.581 173.6l-76.29 90.316z" transform="translate(-1012.315 -719.863)" fill="#19a597"></path><path id="Tracé_4596" data-name="Tracé 4596" d="M1018.669 809.121l48.512 35.222 5.93-123.17c.609-.437 1.209-.884 1.829-1.311.4.2.786.409 1.186.611l-3.177 65.968 43.524-34.751c.342.4.666.814 1 1.221l.87 1.092-45.584 36.4-5.294 109.937 78.332-58.553c-.01 1.267-.028 2.524-.063 3.762l-78.454 58.645-3.76 78.064-1.29 1.526-1.649-2.431 6.427-133.45-49.117-35.661q.378-1.559.778-3.121z" transform="translate(-1009.953 -719.863)" fill="#118c7d"></path></g><g id="Groupe_486" data-name="Groupe 486" transform="translate(154.439 98.098)"><path id="Tracé_4597" data-name="Tracé 4597" d="M1062.65 877.43s55.144-98.45 130.185-87.856c62.316 141.654-113.469 230.921-113.469 230.921z" transform="translate(-1062.65 -788.776)" fill="#91dbd6"></path><g id="Groupe_485" data-name="Groupe 485" transform="translate(10.427 .6)"><path id="Tracé_4598" data-name="Tracé 4598" d="M1189.734 789.4c.239.545.466 1.089.7 1.633l-84.721 127.19 82.874-7.189q-.758 1.571-1.547 3.122l-83.44 7.239-33.09 49.678-.535-4.571 64.426-96.721L1122.3 807.7q1.333-.9 2.686-1.779l11.764 60.333 51.328-77.056c.552.067 1.1.119 1.655.2z" transform="translate(-1069.975 -789.197)" fill="#a6e0db"></path></g></g></g><g id="Groupe_497" data-name="Groupe 497" transform="translate(916.657 615.773)"><g id="Groupe_496" data-name="Groupe 496" transform="translate(0 2.232)"><g id="Groupe_490" data-name="Groupe 490" transform="translate(53.676 12.831)"><g id="Groupe_489" data-name="Groupe 489"><path id="Tracé_4599" data-name="Tracé 4599" d="M939.766 664.74l-8.544 19.085-13.905-12.525 9.809-27.8z" transform="translate(-917.317 -619.096)" fill="#ffcaca"></path><g id="Groupe_488" data-name="Groupe 488" transform="translate(9.472)"><path id="Tracé_4600" data-name="Tracé 4600" d="M941.89 673.207c2.334.31 4.549.283 5.841-.536 8.456-9.577 5.555-37.787 5.555-37.787l-9.9-8.53-15.135 7.063-3.945 15.5c-1.053 5.116.39 14.086 3.889 17.965a26.35 26.35 0 0 0 13.695 6.325z" transform="translate(-923.971 -626.354)" fill="#ffcaca"></path></g></g></g><path id="Tracé_4601" data-name="Tracé 4601" d="M941.746 745.27A21.885 21.885 0 0 0 952 752.584c6.839 2.349 57.758-8.336 57.758-8.336l10.227 1.073a25.993 25.993 0 0 0 16.2-.839l14.975-5.791-87.851-1.832-33.626-41.759z" transform="translate(-858.403 -584.409)" fill="#ffcaca"></path><path id="Tracé_4602" data-name="Tracé 4602" d="M926.686 663.023s-20.3 26-25.041 43.094-6.45 64.216-6.45 64.216h42.715s12.265-22.231 21.785-42.4a23.069 23.069 0 0 0 .265-19.165c-6.972-15.794-17.444-37.518-17.444-37.518z" transform="translate(-873.01 -597.993)" fill="#118c7d"></path><g id="Groupe_492" data-name="Groupe 492" transform="translate(60.678 456.761)"><g id="Groupe_491" data-name="Groupe 491" transform="translate(3.118)"><path id="Tracé_4603" data-name="Tracé 4603" d="M935.99 938.209l3.387 8.816a11.329 11.329 0 0 0 4.615 5.856 44.338 44.338 0 0 0 11.664 5.3c-6.79 5.8-17.595-.258-23.774-4.538a15.124 15.124 0 0 1-6.042-8.752l-1.415-6.679z" transform="translate(-924.426 -938.209)" fill="#ffcaca"></path></g><path id="Tracé_4604" data-name="Tracé 4604" d="M926.089 941.43s-4.592 3.61-3.751 8.211 2.034 15.377 2.034 15.377h4.722l-.145-10.05c.013-.658 10.125 10.05 11.838 10.05h24.986s1.66-6.779-13.011-8.958-26.673-14.63-26.673-14.63z" transform="translate(-922.236 -936.845)" fill="#393c51"></path></g><g id="Groupe_494" data-name="Groupe 494" transform="translate(12.111 456.761)"><g id="Groupe_493" data-name="Groupe 493" transform="translate(3.117)"><path id="Tracé_4605" data-name="Tracé 4605" d="M901.873 938.209l3.387 8.816a11.318 11.318 0 0 0 4.614 5.856 44.363 44.363 0 0 0 11.664 5.3c-6.789 5.8-17.593-.258-23.774-4.538a15.129 15.129 0 0 1-6.041-8.752l-1.415-6.679z" transform="translate(-890.307 -938.209)" fill="#ffcaca"></path></g><path id="Tracé_4606" data-name="Tracé 4606" d="M891.97 941.43s-4.591 3.61-3.75 8.211 2.033 15.377 2.033 15.377h4.722l-.145-10.05c.014-.658 10.127 10.05 11.839 10.05h24.986s1.66-6.779-13.012-8.958-26.673-14.63-26.673-14.63z" transform="translate(-888.118 -936.845)" fill="#393c51"></path></g><path id="Tracé_4607" data-name="Tracé 4607" d="M934.3 739.156s21.195 31.77 3.056 158.423c2.848 47.868 8.168 126.651 8.168 126.651h-12.035s-33.353-83.912-22.16-125.712c2.658-41.4-7.6-160.111-7.6-160.111z" transform="translate(-869.395 -566.067)" fill="#f28b79"></path><path id="Tracé_4608" data-name="Tracé 4608" d="M901.8 738.407s-22.186 17.844-22.186 44.343c0 20.789 10.02 63.846 15.764 92.033 2.085 10.232-.021 20.8-2.9 30.839C880.739 946.5 895 1024.23 895 1024.23h11.966s.656-39.978 17.027-129.6c18.8-102.94 20.521-156.219 20.521-156.219z" transform="translate(-879.61 -566.067)" fill="#ff917b"></path><g id="Groupe_495" data-name="Groupe 495" transform="translate(125.377 92.827)"><path id="Tracé_4609" data-name="Tracé 4609" d="M1037.469 744.007h-69.783v-5.129h66.684L1064 682.55l4.538 2.387z" transform="translate(-967.686 -682.55)" fill="#454f6e"></path></g><path id="Tracé_4610" data-name="Tracé 4610" d="M903.73 701.286s22.284 51.883 33 51.883 70.014-25.363 70.014-25.363l-1.576-8.854-60.55 10.258a265.516 265.516 0 0 1-9.091-30.705 16.9 16.9 0 0 0-13.061-13.042c-14.316-2.704-18.736 15.823-18.736 15.823z" transform="translate(-869.395 -588.604)" fill="#ffcaca"></path><path id="Tracé_4611" data-name="Tracé 4611" d="M941.554 647.678s6.608 4 26.84-8.977c3.1.81-1.848-28.349-28.025-19.784-18.323 6-17.445 23.734-16.6 33.547.912 10.6-4.605 17.6-11.893 25.351-6.114 6.5-6.019 18.462-10.091 24.9-5.012 7.918-10.325 7.456-14.3 15.488-4.159 8.407-4.729 18.687.841 26.234 3.166 4.291 10.545 14.635 22.224 10.95 6.555-2.068 8.322-13.512 8.609-23.155a29.2 29.2 0 0 1 11.13-21.9c6.3-5.015 13.178-11.886 15.018-19.055 3.614-14.07-3.753-43.599-3.753-43.599z" transform="translate(-877.641 -617.34)" fill="#393c51"></path><path id="Tracé_4612" data-name="Tracé 4612" d="M923.2 639.2c1.559-1.08 4.036-.42 5.533 1.475s1.446 4.308-.112 5.388-4.037.42-5.533-1.475-1.449-4.305.112-5.388z" transform="translate(-861.659 -608.301)" fill="#ffcaca"></path><path id="Tracé_4613" data-name="Tracé 4613" d="M1009.018 714.773a2.905 2.905 0 0 0-1.728-3l-11.39-4.948a12.475 12.475 0 0 0-8.9-.4l-11.29 3.75-1.527.06-1.216 10.5c2.258-.83 3.579-1.342 3.579-1.342l7.143-2.6s15.583 13.209 21.153 1.214c1.667 11.881 5.052 10.561 5.052 10.561z" transform="translate(-840.072 -579.88)" fill="#ffcaca"></path></g><path id="Tracé_4614" data-name="Tracé 4614" d="M917.565 638.129c2.242 8.115 13.777 12.01 25.766 8.7s18.493-12.313 17.647-20.691c-1.112-11-13.778-12.01-25.766-8.7s-19.889 12.576-17.647 20.691z" transform="translate(-863.696 -615.773)" fill="#393c51"></path></g><g id="Groupe_502" data-name="Groupe 502" transform="translate(792.135 821.366)"><g id="Groupe_498" data-name="Groupe 498" transform="translate(28.469 226.689)"><path id="Tracé_4615" data-name="Tracé 4615" d="M885.734 924.17c0 4.243-14.231 10.639-35.426 10.639s-38.174-3.631-38.174-7.873 16.981-7.49 38.174-7.49 35.426.482 35.426 4.724z" transform="translate(-812.134 -919.445)" fill="#1d2d56"></path></g><g id="Groupe_501" data-name="Groupe 501"><path id="Tracé_4616" data-name="Tracé 4616" d="M798.232 819.007s-9.528 42.878-4.763 59.893c1.765 6.308 6.056 11.118 10.758 14.675a38.988 38.988 0 0 1 15.556 32.031c-.33 13.326.434 28.345 4.994 33.606 8.847 10.209 14.973 13.612 14.973 13.612h18.378v-76.909a76.041 76.041 0 0 0-32.328-31.988c-22.8-11.57-27.568-44.92-27.568-44.92z" transform="translate(-792.135 -735.293)" fill="#118c7d"></path><g id="Groupe_499" data-name="Groupe 499" transform="translate(14.421 124.798)"><path id="Tracé_4617" data-name="Tracé 4617" d="M843.238 961.158c-.65-.451-15.946-11.5-15.946-46.839 0-34.745-24.776-65.282-25.027-65.587l1.05-.864c.253.309 25.337 31.223 25.337 66.451 0 34.635 15.209 45.615 15.361 45.723z" transform="translate(-802.265 -847.868)" fill="#19a597"></path></g><path id="Tracé_4618" data-name="Tracé 4618" d="M873.728 994.327s12.252-46.962 12.252-59.214c0-7.136-4.159-16.584-7.63-23.227a33.6 33.6 0 0 1-3.741-17.972c.706-9.852 1.263-24.588-.881-32.305-.512-4.588-8.775-16.409-21.862-28.148a35.6 35.6 0 0 1-11.876-29.181c3.162-41.1-13.9-44.08-13.9-44.08s8.168 8.326-10.888 38.794c-12.2 19.5-.7 44.422 9.16 59.843a46.076 46.076 0 0 1 6.491 32.957c-1.956 10.917-3.462 24.04-1.359 31.75a55.691 55.691 0 0 0 7.556 16.254 40.945 40.945 0 0 1 6.943 22.247l.475 32.284z" transform="translate(-784.598 -760.199)" fill="#a6e0db"></path><g id="Groupe_500" data-name="Groupe 500" transform="translate(39.453 48.875)"><path id="Tracé_4619" data-name="Tracé 4619" d="M857.9 980.058l-1.246-.545c.219-.505 21.807-50.965-2.678-91.718-27.663-46.045-34.065-92.618-34.127-93.084l1.351-.178c.06.463 6.431 46.768 33.944 92.56 24.851 41.366 2.98 92.454 2.756 92.965z" transform="translate(-819.85 -794.533)" fill="#91dbd6"></path></g></g><path id="Tracé_4620" data-name="Tracé 4620" d="M814.772 924.767s-16.913 22.8-.192 40.041c9.614 9.915 31.84 9.592 49 7.526 18.025-2.171 31.547-17.955 30.063-36.048-.47-5.718-2.426-11.052-6.951-14.847-36.174 9.093-71.92 3.328-71.92 3.328z" transform="translate(-785.755 -691.911)" fill="#f9df70"></path><path id="Tracé_4621" data-name="Tracé 4621" d="M808.907 947.681a26.588 26.588 0 0 0 4.95 7.018c9.614 9.915 31.841 9.592 49 7.526a34.487 34.487 0 0 0 25.75-16.917 269.967 269.967 0 0 1-79.7 2.373z" transform="translate(-785.031 -681.803)" fill="#ff917b"></path></g><path id="Tracé_4622" data-name="Tracé 4622" d="M1054.388 694.288s-8.679-5.668-11.015-7.667c-7.5-7.25-54.422 6.4-60.236-2.406s-13.079-44.173 0-51.12 64.115-10.471 69.765 2.447 1.614 35.549-.221 41.187a23.119 23.119 0 0 0 1.707 17.559z" transform="translate(77.788 4.697)" fill="#f9df70"></path><g id="Groupe_508" data-name="Groupe 508" transform="translate(1072.826 646.436)"><g id="Groupe_507" data-name="Groupe 507"><path id="SVGID-2" data-name="SVGID" d="M991.22 642.89c-.888 3.368-3.459 14.646-.569 22.92a4.426 4.426 0 0 0 2.579 2.711c10.291 3.85 23.487 3.446 28.026 3.164a3.7 3.7 0 0 0 2.767-1.515c2.251-3.075 6.957-11.427 6.283-26.819a3.266 3.266 0 0 0-1.375-2.511c-9.765-6.89-32.892-1.989-36.594.471a2.718 2.718 0 0 0-1.117 1.579z" transform="translate(-989.316 -637.313)" fill="rgba(255,85,72,0.88)"></path><g id="Groupe_506" data-name="Groupe 506" clip-path="url(#clip-path)"><g id="Groupe_503" data-name="Groupe 503" transform="translate(1.656 2.714)"><path id="Tracé_4623" data-name="Tracé 4623" d="M1009.287 654.65l-18.807-14.258.889-1.172 18.049 13.682 20.9-11.473.709 1.289z" transform="translate(-990.48 -639.219)" fill="#ff917b"></path></g><g id="Groupe_504" data-name="Groupe 504" transform="translate(-1.206 12.909)"><path id="Rectangle_100" data-name="Rectangle 100" transform="matrix(.812 -.583 .583 .812 0 11.732)" fill="#ff917b" d="M0 0h20.117v1.471H0z"></path></g><g id="Groupe_505" data-name="Groupe 505" transform="translate(26.788 13.075)"><path id="Rectangle_101" data-name="Rectangle 101" transform="matrix(.806 -.591 .591 .806 0 .871)" fill="#ff917b" d="M0 0h1.472v18.829H0z"></path></g></g></g></g><g id="Groupe_520" data-name="Groupe 520" transform="translate(1049.595 860.152)"><path id="Tracé_4624" data-name="Tracé 4624" d="M1119.05 903.688l-8.205-5.155 25.6-11.417-10.6-24.134c-4.9-10.293-17.558-18.64-29.648-18.647h-52.711c-12.09.007-24.748 8.353-29.649 18.647l-10.6 24.134 25.6 11.417-8.207 5.155-4.547 39.221 53.75-.844 53.751.844z" transform="translate(-960.186 -763.353)" fill="#545a72"></path><path id="Tracé_4625" data-name="Tracé 4625" d="M1107.848 874.389l5.286 17.461c3.855 12.738-.259 26.415-10.662 35.431l-23.982 18.735-7.711-20.965 13.266-12.372a13.484 13.484 0 0 0 3.288-15.471l-5.088-11.4z" transform="translate(-931.586 -750.625)" fill="#ffe2e2"></path><g id="Groupe_512" data-name="Groupe 512" transform="translate(.291 222.032)"><path id="Tracé_4626" data-name="Tracé 4626" d="M1030.844 957.156l-21.36 2.9-4.112-4.519 2.086-8.186 20.529-2.96z" transform="translate(-959.577 -943.01)" fill="#ffe2e2"></path><g id="Groupe_511" data-name="Groupe 511"><path id="Tracé_4627" data-name="Tracé 4627" d="M1023.109 960.467l-26.883 3.314s-26.462 3.435-22.648-11.147c3.683-14.079 27.435-7.832 27.435-7.832l22.1 2.668a11.18 11.18 0 0 0-.313 12.53z" transform="translate(-973.202 -943.421)" fill="#ff917b"></path><path id="Tracé_4628" data-name="Tracé 4628" d="M973.578 952.526c1.483-5.667 6.218-8.037 11.347-8.851v20.084c-6.655-.747-13.404-3.368-11.347-11.233z" transform="translate(-973.202 -943.313)" fill="#dde4ed"></path><g id="Groupe_509" data-name="Groupe 509" transform="translate(36.856 5.515)"><path id="Ligne_1" data-name="Ligne 1" transform="translate(1.105)" fill="#f7af8c" d="M0 0v8.631"></path><path id="Rectangle_102" data-name="Rectangle 102" fill="#fff" d="M0 0h2.209v8.631H0z"></path></g><g id="Groupe_510" data-name="Groupe 510" transform="translate(31.402 5.515)"><path id="Ligne_2" data-name="Ligne 2" transform="translate(1.105)" fill="#f7af8c" d="M0 0v8.631"></path><path id="Rectangle_103" data-name="Rectangle 103" fill="#fff" d="M0 0h2.209v8.631H0z"></path></g></g></g><path id="Tracé_4629" data-name="Tracé 4629" d="M1005.427 874.389l-5.286 17.461c-3.856 12.738.259 26.415 10.661 35.431l23.983 18.735 7.71-20.965-13.266-12.372a13.487 13.487 0 0 1-3.288-15.471l5.089-11.4z" transform="translate(-962.104 -750.625)" fill="#ffe2e2"></path><g id="Groupe_516" data-name="Groupe 516" transform="translate(150.059 222.032)"><path id="Tracé_4630" data-name="Tracé 4630" d="M1078.411 958.758l21.719 1.3 4.111-4.519-2.086-8.186-20.529-2.96z" transform="translate(-1078.411 -943.01)" fill="#ffe2e2"></path><g id="Groupe_515" data-name="Groupe 515" transform="translate(21.719)"><path id="Tracé_4631" data-name="Tracé 4631" d="M1093.669 960.467l26.882 3.314s26.463 3.435 22.648-11.147c-3.683-14.079-27.434-7.832-27.434-7.832l-22.1 2.668a11.18 11.18 0 0 1 .3 12.535z" transform="translate(-1093.669 -943.421)" fill="#ff917b"></path><path id="Tracé_4632" data-name="Tracé 4632" d="M1131.839 952.526c-1.482-5.667-6.218-8.037-11.347-8.851v20.084c6.655-.747 13.408-3.368 11.347-11.233z" transform="translate(-1082.309 -943.313)" fill="#dde4ed"></path><g id="Groupe_513" data-name="Groupe 513" transform="translate(10.84 5.515)"><path id="Ligne_3" data-name="Ligne 3" transform="translate(1.105)" fill="#f7af8c" d="M0 0v8.631"></path><path id="Rectangle_104" data-name="Rectangle 104" fill="#fff" d="M0 0h2.21v8.631H0z"></path></g><g id="Groupe_514" data-name="Groupe 514" transform="translate(16.295 5.515)"><path id="Ligne_4" data-name="Ligne 4" transform="translate(1.105)" fill="#f7af8c" d="M0 0v8.631"></path><path id="Rectangle_105" data-name="Rectangle 105" fill="#fff" d="M0 0h2.209v8.631H0z"></path></g></g></g><g id="Groupe_517" data-name="Groupe 517" transform="translate(66.394 147.67)"><path id="Rectangle_106" data-name="Rectangle 106" fill="#99a8c7" d="M0 0h91.246v54.609H0z"></path><path id="Rectangle_107" data-name="Rectangle 107" transform="translate(0 52.333)" fill="#beabc2" d="M0 0h91.246v4.551H0z"></path><path id="Tracé_4633" data-name="Tracé 4633" d="M1050.125 908.7a3.65 3.65 0 1 0 3.65-3.65 3.65 3.65 0 0 0-3.65 3.65z" transform="translate(-1008.152 -886.417)" fill="#fff"></path></g><path id="Tracé_4634" data-name="Tracé 4634" d="M1176.972 922.954c17.7 31.531-160.587 50.884-160.587 50.884l-3.023-14.044s141.781-75.72 163.61-36.84z" transform="translate(-955.902 -734.759)" fill="#bcc7db"></path><path id="Tracé_4635" data-name="Tracé 4635" d="M973.9 922.955c-15.039 32.885 162.067 52.6 162.067 52.6l1.315-15.8s-145.599-75.68-163.382-36.8z" transform="translate(-972.997 -734.76)" fill="#c7d2e6"></path><g id="Groupe_519" data-name="Groupe 519" transform="translate(69.272)"><path id="Tracé_4636" data-name="Tracé 4636" d="M1063.608 850.121c-1.641-4.971-4.616-19.71-4.616-19.71l-18.974 3.7v16.091s6.3 4.465 11.593 4.51c5.789.051 12.202-4.03 11.997-4.591z" transform="translate(-1013.885 -769.25)" fill="#ffe2e2"></path><g id="Groupe_518" data-name="Groupe 518" transform="translate(9.704 13.967)"><path id="Tracé_4637" data-name="Tracé 4637" d="M1068.509 818.334l-3.574-21.077-36.458 4.316 2.209 24.281s2.818 30.048 22.225 26.473c20.989-3.865 16.533-34.26 15.598-33.993z" transform="translate(-1028.477 -797.258)" fill="#ffe2e2"></path></g><path id="Tracé_4638" data-name="Tracé 4638" d="M1079.912 819.607a14.441 14.441 0 0 1 1.55-8.767c6.3-10.3-3.234-13.3-6.558-14.19-3.674-.984-4.846-6.7-9.781-8.531-7.538-2.789-11.781 3.959-15.87 4.478s-8.128-3.846-12.87.669-2.715 8.723-3.919 11.157-6.153-1.644-9.748 5.976c-2.734 5.8.286 9.2 3.99 11.148a16.184 16.184 0 0 0 13.936.336 62.955 62.955 0 0 0 14.624-8.883c1.418-1.156 12.544-1.922 13.469-.343 3.135 5.358 3.391 23.175 3.391 23.175l3.246-4.545a11.539 11.539 0 0 0 4.54-11.68z" transform="translate(-1021.66 -787.446)" fill="#ff917b"></path><path id="Tracé_4639" data-name="Tracé 4639" d="M1054.321 814.972c-.978 2.544-.4 5.133 1.3 5.787s3.865-.88 4.843-3.422.394-5.133-1.3-5.787-3.864.879-4.843 3.422z" transform="translate(-1008.028 -777.302)" fill="#ffe2e2"></path></g></g></g><path id="Rectangle_459" data-name="Rectangle 459" transform="translate(445 3173)" fill="none" d="M0 0h610v560H0z"></path></g></svg> 